<mxfile modified="2024-04-23T21:00:26.940Z" host="app.diagrams.net" agent="Mozilla/5.0 (Windows NT 10.0; Win64; x64) AppleWebKit/537.36 (KHTML, like Gecko) Chrome/123.0.0.0 Safari/537.36" etag="PpFIRnajezzAFmv5WpbR" version="24.2.8" type="github">
  <diagram id="Ht1M8jgEwFfnCIfOTk4-" name="Page-1">
    <mxGraphModel dx="1358" dy="1565" grid="1" gridSize="10" guides="1" tooltips="1" connect="1" arrows="1" fold="1" page="1" pageScale="1" pageWidth="1169" pageHeight="827" math="0" shadow="0">
      <root>
        <mxCell id="0" />
        <mxCell id="1" parent="0" />
        <mxCell id="FsleN_jO582Nin-WxB7c-1" value="" style="outlineConnect=0;dashed=0;verticalLabelPosition=bottom;verticalAlign=top;align=center;html=1;shape=mxgraph.aws3.ec2;fillColor=#F58534;gradientColor=none;" vertex="1" parent="1">
          <mxGeometry x="448" y="-301.5" width="76.5" height="93" as="geometry" />
        </mxCell>
        <mxCell id="FsleN_jO582Nin-WxB7c-2" value="AWS EC2" style="text;html=1;align=center;verticalAlign=middle;resizable=0;points=[];autosize=1;strokeColor=none;fillColor=none;" vertex="1" parent="1">
          <mxGeometry x="448" y="-207" width="80" height="30" as="geometry" />
        </mxCell>
        <mxCell id="FsleN_jO582Nin-WxB7c-4" value="" style="outlineConnect=0;dashed=0;verticalLabelPosition=bottom;verticalAlign=top;align=center;html=1;shape=mxgraph.aws3.s3;fillColor=#E05243;gradientColor=none;" vertex="1" parent="1">
          <mxGeometry x="670" y="-293" width="76.5" height="93" as="geometry" />
        </mxCell>
        <mxCell id="FsleN_jO582Nin-WxB7c-5" value="AWS S3 Bucket&lt;div&gt;&lt;br&gt;&lt;/div&gt;" style="text;html=1;align=center;verticalAlign=middle;resizable=0;points=[];autosize=1;strokeColor=none;fillColor=none;" vertex="1" parent="1">
          <mxGeometry x="643.25" y="-200" width="110" height="40" as="geometry" />
        </mxCell>
        <mxCell id="FsleN_jO582Nin-WxB7c-7" value="" style="shape=datastore;whiteSpace=wrap;html=1;" vertex="1" parent="1">
          <mxGeometry x="860" y="-290" width="110" height="70" as="geometry" />
        </mxCell>
        <mxCell id="FsleN_jO582Nin-WxB7c-8" value="Dataset&lt;div&gt;&lt;br&gt;&lt;/div&gt;" style="text;html=1;align=center;verticalAlign=middle;resizable=0;points=[];autosize=1;strokeColor=none;fillColor=none;" vertex="1" parent="1">
          <mxGeometry x="870" y="-217" width="60" height="40" as="geometry" />
        </mxCell>
        <mxCell id="FsleN_jO582Nin-WxB7c-9" value="" style="endArrow=classic;html=1;rounded=0;exitX=-0.006;exitY=0.621;exitDx=0;exitDy=0;exitPerimeter=0;" edge="1" parent="1" source="FsleN_jO582Nin-WxB7c-7" target="FsleN_jO582Nin-WxB7c-4">
          <mxGeometry width="50" height="50" relative="1" as="geometry">
            <mxPoint x="860" y="-248.77" as="sourcePoint" />
            <mxPoint x="733.2105000000001" y="-245.23899999999983" as="targetPoint" />
          </mxGeometry>
        </mxCell>
        <mxCell id="FsleN_jO582Nin-WxB7c-11" value="" style="endArrow=classic;html=1;rounded=0;entryX=0.973;entryY=0.591;entryDx=0;entryDy=0;entryPerimeter=0;" edge="1" parent="1" source="FsleN_jO582Nin-WxB7c-4" target="FsleN_jO582Nin-WxB7c-1">
          <mxGeometry width="50" height="50" relative="1" as="geometry">
            <mxPoint x="600" y="-247.4" as="sourcePoint" />
            <mxPoint x="502" y="-247.4" as="targetPoint" />
          </mxGeometry>
        </mxCell>
        <mxCell id="FsleN_jO582Nin-WxB7c-15" value="" style="edgeStyle=orthogonalEdgeStyle;rounded=0;orthogonalLoop=1;jettySize=auto;html=1;" edge="1" parent="1" source="FsleN_jO582Nin-WxB7c-14" target="FsleN_jO582Nin-WxB7c-1">
          <mxGeometry relative="1" as="geometry" />
        </mxCell>
        <mxCell id="FsleN_jO582Nin-WxB7c-14" value="IFogSim and SimuLTE&lt;div&gt;installation&lt;/div&gt;&lt;div&gt;&lt;br&gt;&lt;/div&gt;" style="text;html=1;align=center;verticalAlign=middle;resizable=0;points=[];autosize=1;strokeColor=none;fillColor=none;" vertex="1" parent="1">
          <mxGeometry x="416.25" y="-420" width="140" height="60" as="geometry" />
        </mxCell>
        <mxCell id="FsleN_jO582Nin-WxB7c-16" value="AWS Cloud9" style="sketch=0;outlineConnect=0;fontColor=#232F3E;gradientColor=none;strokeColor=#ffffff;fillColor=#232F3E;dashed=0;verticalLabelPosition=middle;verticalAlign=bottom;align=center;html=1;whiteSpace=wrap;fontSize=10;fontStyle=1;spacing=3;shape=mxgraph.aws4.productIcon;prIcon=mxgraph.aws4.cloud9;" vertex="1" parent="1">
          <mxGeometry x="230" y="-290" width="90" height="110" as="geometry" />
        </mxCell>
        <mxCell id="FsleN_jO582Nin-WxB7c-17" value="" style="endArrow=classic;html=1;rounded=0;entryX=0.026;entryY=0.586;entryDx=0;entryDy=0;entryPerimeter=0;" edge="1" parent="1" target="FsleN_jO582Nin-WxB7c-1">
          <mxGeometry width="50" height="50" relative="1" as="geometry">
            <mxPoint x="320" y="-247" as="sourcePoint" />
            <mxPoint x="432" y="-247" as="targetPoint" />
          </mxGeometry>
        </mxCell>
      </root>
    </mxGraphModel>
  </diagram>
</mxfile>
